General

Format                           : MPEG-4
Format profile                   : Base Media
Codec ID                         : isom
File size                        : 95.7 MiB
Duration                         : 3mn 55s
Overall bit rate                 : 3 409 Kbps
Encoded date                     : UTC 2012-05-17 03:00:16
Tagged date                      : UTC 2012-05-17 03:00:16

Video
ID                               : 1
Format                           : AVC
Format/Info                      : Advanced Video Codec
Format profile                   : High@L3.0
Format settings, CABAC           : Yes
Format settings, ReFrames        : 2 frames
Codec ID                         : avc1
Codec ID/Info                    : Advanced Video Coding
Duration                         : 3mn 55s
Bit rate mode                    : Variable
Bit rate                         : 3 296 Kbps
Maximum bit rate                 : 5 720 Kbps
Width                            : 720 pixels
Height                           : 480 pixels
Display aspect ratio             : 4:3
Original display aspect ratio    : 4:3
Frame rate mode                  : Constant
Frame rate                       : 29.970 fps
Standard                         : NTSC
Color space                      : YUV
Chroma subsampling               : 4:2:0
Bit depth                        : 8 bits
Scan type                        : Progressive
Bits/(Pixel*Frame)               : 0.318
Stream size                      : 93.3 MiB (98%)


Audio
ID                               : 2
Format                           : AAC
Format/Info                      : Advanced Audio Codec
Format profile                   : LC
Codec ID                         : 40
Duration                         : 3mn 55s
Bit rate mode                    : Variable
Bit rate                         : 77.3 Kbps
Maximum bit rate                 : 85.5 Kbps
Channel(s)                       : 2 channels
Channel positions                : Front: L R
Sampling rate                    : 48.0 KHz
Compression mode                 : Lossy
Stream size                      : 2.17 MiB (2%)